<?xml version="1.0" encoding="UTF-8"?>
<svg version="1.1" xmlns="http://www.w3.org/2000/svg" width="256" height="256">
<path d="M0 0 C84.48 0 168.96 0 256 0 C256 84.48 256 168.96 256 256 C171.52 256 87.04 256 0 256 C0 171.52 0 87.04 0 0 Z " fill="#FDFDFE" transform="translate(0,0)"/>
<path d="M0 0 C84.48 0 168.96 0 256 0 C256 17.82 256 35.64 256 54 C255.34 54 254.68 54 254 54 C253.938125 54.825 253.87625 55.65 253.8125 56.5 C251.62298272 65.93176675 244.37626212 72.20351705 237 78 C236.34 78 235.68 78 235 78 C235 78.66 235 79.32 235 80 C233.59321977 81.24814331 232.12120296 82.4230839 230.625 83.5625 C225.86495731 87.25797474 221.42788646 91.19413167 217.03125 95.3125 C215 97 215 97 213 97 C213 97.66 213 98.32 213 99 C212.195625 99.268125 211.39125 99.53625 210.5625 99.8125 C209.716875 100.204375 208.87125 100.59625 208 101 C207.67 101.99 207.34 102.98 207 104 C205.51171875 105.24609375 205.51171875 105.24609375 203.6875 106.4375 C201.4164436 107.97325535 199.64511327 109.35488673 197.6875 111.3125 C197.130625 111.869375 196.57375 112.42625 196 113 C195.34 113 194.68 113 194 113 C194 113.66 194 114.32 194 115 C190.53846154 118 190.53846154 118 188 118 C187.67 118.99 187.34 119.98 187 121 C181.53488372 126 181.53488372 126 179 126 C179 126.66 179 127.32 179 128 C173.52380952 133 173.52380952 133 171 133 C171 133.66 171 134.32 171 135 C169.34516392 136.49877503 167.62409488 137.92488473 165.875 139.3125 C164.87339844 140.11171875 163.87179688 140.9109375 162.83984375 141.734375 C161.90269531 142.48203125 160.96554688 143.2296875 160 144 C158.80872738 145.0164283 157.62020374 146.03611371 156.4375 147.0625 C154 149 154 149 152 149 C151.67 149.99 151.34 150.98 151 152 C150.0409375 152.2165625 150.0409375 152.2165625 149.0625 152.4375 C148.381875 152.623125 147.70125 152.80875 147 153 C146.59587891 153.87785156 146.59587891 153.87785156 146.18359375 154.7734375 C144.62605123 157.70346798 142.61358085 159.1627346 140 161.1875 C139.113125 161.88230469 138.22625 162.57710937 137.3125 163.29296875 C133.9103555 165.80434906 131.88880272 166.22718691 127.6875 166.375 C126.74261719 166.42398438 125.79773438 166.47296875 124.82421875 166.5234375 C120.85959126 165.78863794 119.64986888 164.01646728 117 161 C115.8526325 159.7842823 114.70129647 158.57230267 113.546875 157.36328125 C112.28006572 156.01413186 111.01448525 154.66382782 109.75 153.3125 C108.75311157 152.24793579 108.75311157 152.24793579 107.73608398 151.16186523 C102.01848757 145.04337587 96.39715756 138.84887432 90.85546875 132.5703125 C88.10533013 129.45791072 85.37510353 126.37510353 82.4375 123.4375 C70.6 111.6 70.6 111.6 69.4375 104.625 C70.18842608 99.7856986 72.44924072 97.25639582 76 94 C79.21373759 92.3931312 82.51374828 92.53381518 86 93 C89.39260867 94.98591727 91.62154357 97.69023671 94.16015625 100.6328125 C97.95611362 104.98657748 101.89767374 109.18730673 105.875 113.375 C111.0621639 118.85783941 116.20083442 124.3669429 121.203125 130.01953125 C121.79609375 130.67308594 122.3890625 131.32664063 123 132 C123.59296875 132.76699219 124.1859375 133.53398437 124.796875 134.32421875 C126.98464515 136.32622628 126.98464515 136.32622628 130.359375 136.09375 C134.69537067 134.79109036 137.15980725 132.65163181 140.25 129.5 C141.38555119 128.39589182 142.52360777 127.29435498 143.6640625 126.1953125 C144.22512695 125.65036133 144.78619141 125.10541016 145.36425781 124.54394531 C147.68217871 122.35610475 150.13622735 120.36459189 152.625 118.375 C156.41975725 115.33036918 160.04837753 112.17344073 163.625 108.875 C167.52723526 105.28272953 171.52806599 101.98149009 175.75 98.77734375 C180.02213163 95.40265644 183.97824779 91.66555838 188 88 C189.45410199 86.70357172 190.91209562 85.41148734 192.375 84.125 C193.28378906 83.32449219 193.28378906 83.32449219 194.2109375 82.5078125 C199.55958549 78 199.55958549 78 202 78 C202.20625 77.4225 202.4125 76.845 202.625 76.25 C204.51625222 73.15522364 206.90035937 71.8081237 210 70 C210.66 70 211.32 70 212 70 C212.26554688 69.39800781 212.53109375 68.79601562 212.8046875 68.17578125 C214.04403115 65.91985179 215.13849432 64.79056389 217.125 63.1875 C217.73988281 62.67960937 218.35476562 62.17171875 218.98828125 61.6484375 C219.65214844 61.10445312 220.31601563 60.56046875 221 60 C222.44334783 58.77770544 223.88089649 57.54852926 225.3125 56.3125 C225.96863281 55.75175781 226.62476563 55.19101562 227.30078125 54.61328125 C229.84901996 52.19391898 230.94926693 50.56552454 231.265625 47.0390625 C231.25789063 45.34910156 231.25789063 45.34910156 231.25 43.625 C231.25515625 42.50351562 231.2603125 41.38203125 231.265625 40.2265625 C231.00308857 37.03751709 230.32780715 34.8835215 229 32 C228.67 31.01 228.34 30.02 228 29 C226.16715557 27.87483915 226.16715557 27.87483915 224 27 C223.16066264 26.48447775 223.16066264 26.48447775 222.30436897 25.95854092 C219.11622045 24.63237707 216.39310139 24.73844242 212.94259644 24.72584534 C211.87612088 24.71799032 211.87612088 24.71799032 210.78810036 24.70997661 C208.40538891 24.69497362 206.02289216 24.69427139 203.64013672 24.69360352 C201.9316522 24.68598199 200.22317111 24.67755451 198.51469421 24.66838074 C193.87183912 24.64642258 189.2290499 24.63763456 184.58614874 24.63255429 C181.6834329 24.62891095 178.78073432 24.62267087 175.87802505 24.6155529 C165.74517306 24.59104961 155.61237229 24.57800552 145.47949219 24.57446289 C136.04550346 24.57083143 126.61184083 24.54096624 117.17795169 24.49905831 C109.07161342 24.46431483 100.96538295 24.44891371 92.85897076 24.44821686 C88.02061953 24.44742514 83.18260011 24.43873584 78.34432602 24.41021919 C73.78874803 24.38397042 69.23377524 24.38187115 64.6781559 24.39787483 C63.01173008 24.39968418 61.34526893 24.39304525 59.67891884 24.37705612 C49.48944207 24.28529526 40.71380942 24.66297854 32.86967278 31.98984623 C27.13502092 37.97195304 24.63236169 43.91826197 24.60127258 52.18174744 C24.59462576 52.86968165 24.58797893 53.55761587 24.58113068 54.26639658 C24.56259986 56.55267027 24.56509914 58.83841605 24.56762695 61.12475586 C24.5586037 62.77109511 24.54827509 64.41742764 24.53674316 66.06375122 C24.50921316 70.51982402 24.49989408 74.97576919 24.49388909 79.431916 C24.48449502 84.09378646 24.45829077 88.75556198 24.43388367 93.41737366 C24.39024344 102.23923913 24.36168125 111.06108615 24.33856028 119.88302666 C24.31149535 129.92900178 24.26758462 139.97488128 24.22227156 150.02078807 C24.12946075 170.68047392 24.05776368 191.34018839 24 212 C24.66 212 25.32 212 26 212 C26.391875 213.03125 26.78375 214.0625 27.1875 215.125 C30.29772069 222.26698826 35.11373441 226.5637124 42 230 C45.52437807 231.13445847 48.85656902 231.1364006 52.54368591 231.15390015 C53.52735715 231.16047353 53.52735715 231.16047353 54.53090054 231.1671797 C56.72690217 231.18052679 58.92286371 231.18673745 61.11889648 231.19287109 C62.6944344 231.20077561 64.26997052 231.20904478 65.84550476 231.21765137 C71.02068358 231.24384224 76.19587034 231.25918119 81.37109375 231.2734375 C83.15632698 231.27879935 84.94156016 231.28417687 86.72679329 231.28956985 C94.15835463 231.31119883 101.58991384 231.3299316 109.02149868 231.34119225 C119.64935795 231.35740461 130.27685009 231.39051604 140.904571 231.44759309 C148.38844464 231.48640521 155.87222058 231.50583852 163.35619217 231.51111281 C167.81963886 231.51475233 172.28269371 231.52662266 176.74603081 231.55921555 C180.95278009 231.58949343 185.15890455 231.59553862 189.36573982 231.58383179 C190.90029872 231.58361265 192.43488829 231.59178323 193.96934509 231.60948563 C204.4946665 231.72418961 215.52152063 231.13732162 223.59068966 223.57063866 C229.95493367 216.33733022 231.30346163 208.88533946 231.27124023 199.55200195 C231.27646698 198.74931885 231.28169373 197.94663574 231.28707886 197.11962891 C231.29725389 195.39168037 231.30308781 193.66370174 231.30496025 191.93572426 C231.30864671 189.19896458 231.32543232 186.4625599 231.34571838 183.72587585 C231.40093349 175.95037425 231.43187438 168.17482295 231.45629883 160.39916992 C231.47217517 155.63064456 231.50238426 150.8623766 231.54106331 146.0939846 C231.55270128 144.28114744 231.55864355 142.4682643 231.55874443 140.65538979 C231.55893656 138.1232573 231.57720501 135.59183635 231.59936523 133.05981445 C231.59478806 132.31424789 231.59021088 131.56868134 231.585495 130.80052185 C231.64723116 126.36164026 232.2444246 123.51605159 235 120 C239.25486084 117.1634261 243.00666331 117.48234947 248 118 C251.0625 119.25 251.0625 119.25 253 121 C253.8125 123.1875 253.8125 123.1875 254 125 C254.66 125 255.32 125 256 125 C256 168.23 256 211.46 256 256 C171.52 256 87.04 256 0 256 C0 171.52 0 87.04 0 0 Z " fill="#776AC9" transform="translate(0,0)"/>
<path d="M0 0 C0.90105469 0.01804687 1.80210937 0.03609375 2.73046875 0.0546875 C3.41753906 0.07789062 4.10460937 0.10109375 4.8125 0.125 C4.8125 0.455 4.8125 0.785 4.8125 1.125 C3.74 1.3725 2.6675 1.62 1.5625 1.875 C-2.2944859 3.16066197 -3.87710039 3.83712363 -6.1875 7.125 C-7.44666102 13.74853192 -7.53460137 20.45930421 -7.79296875 27.18164062 C-7.83035156 28.04595703 -7.86773437 28.91027344 -7.90625 29.80078125 C-7.93654297 30.58364502 -7.96683594 31.36650879 -7.99804688 32.1730957 C-8.1875 34.125 -8.1875 34.125 -9.1875 36.125 C-9.29737576 38.05324027 -9.34396122 39.98521159 -9.36108398 41.91650391 C-9.38131874 43.73947495 -9.38131874 43.73947495 -9.40196228 45.59927368 C-9.40702223 46.25096149 -9.41208218 46.90264931 -9.41729546 47.57408524 C-9.43372616 49.61803385 -9.45696938 51.66180008 -9.48219299 53.70565796 C-9.55287781 59.5177089 -9.61281059 65.32983798 -9.66430664 71.14208984 C-9.6962884 74.69770844 -9.7376206 78.25312287 -9.78450203 81.80857468 C-9.80811929 83.81132779 -9.82121317 85.81419616 -9.83409119 87.81704712 C-9.9996455 100.09511589 -9.9996455 100.09511589 -12.1875 106.125 C-15.0625 107.375 -15.0625 107.375 -18.1875 108.125 C-19.56312854 109.41465176 -20.89516393 110.75189293 -22.1875 112.125 C-30.02273142 118.81361219 -41.43908456 117.27678475 -51.21484375 117.2578125 C-52.8800985 117.25924759 -52.8800985 117.25924759 -54.57899475 117.26071167 C-56.91098081 117.26138774 -59.24296881 117.25957374 -61.57495117 117.25537109 C-65.11186013 117.25001988 -68.64864183 117.25533311 -72.18554688 117.26171875 C-74.46614611 117.26105777 -76.74674527 117.25977619 -79.02734375 117.2578125 C-80.06833725 117.25983673 -81.10933075 117.26186096 -82.18186951 117.26394653 C-87.02729861 117.24874393 -91.7930193 117.10634743 -96.61645508 116.63647461 C-105.88153671 115.79532527 -115.18838933 115.88781019 -124.484375 115.80859375 C-126.52989076 115.7879846 -128.57540265 115.76698721 -130.62091064 115.74562073 C-135.96696808 115.69080856 -141.3130613 115.64122163 -146.65917969 115.59277344 C-152.12958913 115.54225729 -157.59994754 115.4867295 -163.0703125 115.43164062 C-173.77599792 115.32455991 -184.48172793 115.22300681 -195.1875 115.125 C-195.1875 114.795 -195.1875 114.465 -195.1875 114.125 C-194.37488614 114.12445523 -193.56227228 114.12391047 -192.72503376 114.12334919 C-172.9088493 114.10835086 -153.09288903 114.06578088 -133.27682972 113.99290943 C-123.69372348 113.95832636 -114.11076008 113.9329127 -104.52758789 113.92944336 C-96.17024862 113.92639414 -87.81316419 113.9057755 -79.45592326 113.86447543 C-75.03495826 113.84323028 -70.61435478 113.83050086 -66.19333839 113.83884621 C-62.02264834 113.84644052 -57.85268755 113.83034791 -53.68213081 113.79693985 C-52.16052142 113.78877081 -50.63883861 113.78887983 -49.11723709 113.79840279 C-38.63947107 113.85742747 -27.62342906 113.22087576 -19.59634113 105.69593525 C-13.23327581 98.46144753 -11.88403692 91.01075805 -11.91625977 81.67700195 C-11.91103302 80.87431885 -11.90580627 80.07163574 -11.90042114 79.24462891 C-11.89024611 77.51668037 -11.88441219 75.78870174 -11.88253975 74.06072426 C-11.87885329 71.32396458 -11.86206768 68.5875599 -11.84178162 65.85087585 C-11.78656651 58.07537425 -11.75562562 50.29982295 -11.73120117 42.52416992 C-11.71532483 37.75564456 -11.68511574 32.9873766 -11.64643669 28.2189846 C-11.63479872 26.40614744 -11.62885645 24.5932643 -11.62875557 22.78038979 C-11.62856344 20.2482573 -11.61029499 17.71683635 -11.58813477 15.18481445 C-11.59271194 14.43924789 -11.59728912 13.69368134 -11.602005 12.92552185 C-11.54026884 8.48664026 -10.9430754 5.64105159 -8.1875 2.125 C-4.87379 -0.08414 -3.8428979 -0.09981553 0 0 Z " fill="#AB89C3" transform="translate(243.1875,117.875)"/>
<path d="M0 0 C0.33 0 0.66 0 1 0 C1 49.5 1 99 1 150 C0.01 150 -0.98 150 -2 150 C-2.04671577 131.18071265 -2.08198678 112.36143707 -2.10362434 93.54210377 C-2.11393797 84.80400975 -2.12799996 76.06595176 -2.15087891 67.32788086 C-2.17081013 59.71199399 -2.18371581 52.0961332 -2.18817699 44.48022097 C-2.19078482 40.4474675 -2.19691617 36.41478866 -2.21146011 32.3820591 C-2.22503979 28.58592751 -2.22922186 24.78990128 -2.22621536 20.99374771 C-2.22676535 19.60098002 -2.23074054 18.20820879 -2.23841095 16.81546211 C-2.24837761 14.91234515 -2.24477364 13.0091716 -2.24050903 11.10603333 C-2.24235262 10.04136243 -2.24419621 8.97669153 -2.24609566 7.87975788 C-1.99082859 4.89267815 -1.25801019 2.70560486 0 0 Z " fill="#4C68CB" transform="translate(22,57)"/>
<path d="M0 0 C0.66 0 1.32 0 2 0 C2 11.22 2 22.44 2 34 C-9.22 34 -20.44 34 -32 34 C-32 33.34 -32 32.68 -32 32 C-31.33613281 31.81824219 -30.67226562 31.63648438 -29.98828125 31.44921875 C-18.75681933 28.25194127 -10.5627129 22.39219614 -4.25390625 12.421875 C-2.20355164 8.46168852 -1.02919372 4.32441922 0 0 Z " fill="#FBFCFB" transform="translate(254,222)"/>
<path d="M0 0 C11.22 0 22.44 0 34 0 C34 11.22 34 22.44 34 34 C33.34 34 32.68 34 32 34 C31.61521484 32.65808594 31.61521484 32.65808594 31.22265625 31.2890625 C27.75266945 20.32997962 23.05822513 12.42485843 12.56616211 6.87280273 C8.49083784 4.84387911 4.48556482 2.89711296 0 2 C0 1.34 0 0.68 0 0 Z " fill="#F9F5FB" transform="translate(222,0)"/>
<path d="M0 0 C0.66 0 1.32 0 2 0 C2.18175781 0.58007812 2.36351562 1.16015625 2.55078125 1.7578125 C2.80214844 2.53898438 3.05351563 3.32015625 3.3125 4.125 C3.55613281 4.89070312 3.79976563 5.65640625 4.05078125 6.4453125 C8.20673647 17.63047593 15.34077751 24.88651602 26.10546875 29.84375 C29.03879976 31.01549896 31.99206057 32.03745938 35 33 C35 33.33 35 33.66 35 34 C23.45 34 11.9 34 0 34 C0 22.78 0 11.56 0 0 Z " fill="#FAFAFC" transform="translate(0,222)"/>
<path d="M0 0 C11.22 0 22.44 0 34 0 C34 0.66 34 1.32 34 2 C33.40574219 2.13535156 32.81148437 2.27070312 32.19921875 2.41015625 C24.26491936 4.47085298 15.67820079 7.98269881 11 15 C10.34 15 9.68 15 9 15 C8.731875 15.70125 8.46375 16.4025 8.1875 17.125 C7 20 7 20 5.5 22.9375 C4.0434244 25.91134185 2.97787336 28.84071682 2 32 C1.34 32 0.68 32 0 32 C0 21.44 0 10.88 0 0 Z " fill="#F8FAFD" transform="translate(0,0)"/>
<path d="M0 0 C1 3 1 3 0.42578125 4.875 C-3.5021704 12.37256386 -9.42177408 17.80154968 -16 23 C-16.66 23 -17.32 23 -18 23 C-18 23.66 -18 24.32 -18 25 C-19.40678023 26.24814331 -20.87879704 27.4230839 -22.375 28.5625 C-27.13504269 32.25797474 -31.57211354 36.19413167 -35.96875 40.3125 C-38 42 -38 42 -40 42 C-40 42.66 -40 43.32 -40 44 C-40.804375 44.268125 -41.60875 44.53625 -42.4375 44.8125 C-43.7059375 45.4003125 -43.7059375 45.4003125 -45 46 C-45.33 46.99 -45.66 47.98 -46 49 C-47.48828125 50.24609375 -47.48828125 50.24609375 -49.3125 51.4375 C-51.5835564 52.97325535 -53.35488673 54.35488673 -55.3125 56.3125 C-55.869375 56.869375 -56.42625 57.42625 -57 58 C-57.66 58 -58.32 58 -59 58 C-59 58.66 -59 59.32 -59 60 C-62.46153846 63 -62.46153846 63 -65 63 C-65.33 63.99 -65.66 64.98 -66 66 C-68.0625 67.1875 -68.0625 67.1875 -70 68 C-70 67.01 -70 66.02 -70 65 C-69.01 64.505 -69.01 64.505 -68 64 C-67.67 63.01 -67.34 62.02 -67 61 C-62.66666667 58 -62.66666667 58 -60 58 C-59.814375 57.278125 -59.62875 56.55625 -59.4375 55.8125 C-57.5043678 52.03028483 -54.74316961 49.95911995 -51 48 C-50.01 48 -49.02 48 -48 48 C-48 47.01 -48 46.02 -48 45 C-46.35 44.34 -44.7 43.68 -43 43 C-43 42.34 -43 41.68 -43 41 C-40.525 40.505 -40.525 40.505 -38 40 C-37.90074219 39.38769531 -37.80148438 38.77539062 -37.69921875 38.14453125 C-36.69777749 35.07307175 -34.49492978 34.140132 -31.8984375 32.41796875 C-29.325987 30.49657054 -27.49621975 28.18938807 -25.484375 25.70703125 C-23.99606305 23.99547251 -22.45023172 22.61027631 -20.6875 21.1875 C-17.96924803 19.28130489 -17.96924803 19.28130489 -17 17 C-16.01 16.67 -15.02 16.34 -14 16 C-13.67 15.01 -13.34 14.02 -13 13 C-11.68352881 12.30062468 -10.34977849 11.63270867 -9 11 C-8.67 10.34 -8.34 9.68 -8 9 C-7.01 9 -6.02 9 -5 9 C-5 7.68 -5 6.36 -5 5 C-4.34 5 -3.68 5 -3 5 C-2.814375 4.0409375 -2.814375 4.0409375 -2.625 3.0625 C-2.41875 2.381875 -2.2125 1.70125 -2 1 C-1.34 0.67 -0.68 0.34 0 0 Z " fill="#9175B2" transform="translate(253,55)"/>
<path d="M0 0 C1.07577741 -0.00128164 1.07577741 -0.00128164 2.17328769 -0.00258917 C4.58241333 -0.00423954 6.99146973 0.00127019 9.40058899 0.00672913 C11.12514748 0.00701112 12.8497061 0.00685303 14.57426453 0.00628662 C19.26196438 0.00599912 23.94963876 0.01188825 28.63733268 0.01886058 C33.53406887 0.02510195 38.43080561 0.02569854 43.32754517 0.02688599 C52.60289274 0.02999698 61.87822856 0.03820727 71.15357095 0.04823548 C81.71208374 0.05940378 92.27059709 0.06490888 102.82911432 0.06993091 C124.55126934 0.08039006 146.27341378 0.09798505 167.99555969 0.12025452 C167.99555969 0.45025452 167.99555969 0.78025452 167.99555969 1.12025452 C167.11888043 1.12264287 166.24220118 1.12503122 165.33895588 1.12749195 C144.01513377 1.18660774 122.69142501 1.26213587 101.36772633 1.35596943 C91.05577427 1.40095002 80.74385692 1.44035947 70.43183899 1.46669006 C61.4447063 1.4896518 52.45768326 1.5230294 43.4706375 1.56895608 C38.71131266 1.5929129 33.95209657 1.61162556 29.19271278 1.61786842 C24.7135964 1.62390815 20.23475836 1.64386767 15.75574493 1.67453003 C14.11144377 1.68332811 12.46710627 1.68702918 10.82278252 1.68526268 C8.57775035 1.68361226 6.33356906 1.70028824 4.08865356 1.7215271 C2.20404781 1.72844055 2.20404781 1.72844055 0.28136921 1.73549366 C-3.28253851 2.15281919 -5.08546173 3.10353142 -8.00444031 5.12025452 C-11.89717405 6.70912543 -14.00513277 7.32434711 -18.00444031 6.12025452 C-16.73612337 5.30383198 -15.464681 4.49226346 -14.19194031 3.68275452 C-13.484245 3.23029358 -12.77654968 2.77783264 -12.04740906 2.31166077 C-7.9855561 -0.05710625 -4.61847788 -0.003306 0 0 Z " fill="#E6E9FD" transform="translate(52.00444030761719,23.879745483398438)"/>
<path d="M0 0 C0.66 0.33 1.32 0.66 2 1 C0.75023244 4.65316671 0.32901247 5.78065836 -3 8 C-3.433125 8.825 -3.86625 9.65 -4.3125 10.5 C-6.49642938 13.73545094 -8.36187903 13.81204213 -12 15 C-13.38232443 16.62626404 -14.71937515 18.2925002 -16 20 C-17.32467746 20.6837045 -18.65863633 21.34964186 -20 22 C-22.30850245 24.18371853 -24.49265913 26.45812184 -26.6640625 28.77734375 C-30.21413954 32.47599229 -33.26614386 34.85849365 -38 37 C-38.33 37.66 -38.66 38.32 -39 39 C-41.3140622 39.73075648 -43.64828869 40.40138258 -46 41 C-39.64853612 34.43682066 -32.80101212 28.40946376 -25.6875 22.6875 C-20.72217329 18.68981164 -16.07060456 14.4265408 -11.50268555 9.98510742 C-8.47863581 7.10896543 -5.91326239 5.39709723 -2 4 C-0.65589738 1.98264795 -0.65589738 1.98264795 0 0 Z " fill="#8978B6" transform="translate(204,74)"/>
<path d="M0 0 C2.71682296 1.35841148 3.34052688 3.28705991 4.46875 6.01171875 C5.30773644 9.15174888 4.70010111 11.88136776 4 15 C4.66 15 5.32 15 6 15 C6.33 13.02 6.66 11.04 7 9 C7.33 9 7.66 9 8 9 C8.3721519 15.57468354 8.3721519 15.57468354 6.6875 17.5 C5.8521875 18.2425 5.8521875 18.2425 5 19 C4.525625 20.11375 4.05125 21.2275 3.5625 22.375 C2.07079691 25.83575117 0.33857843 28.09693713 -2 31 C-2 31.99 -2 32.98 -2 34 C-3.093125 34.433125 -4.18625 34.86625 -5.3125 35.3125 C-8.13765911 36.52652419 -9.99900976 37.61786876 -12 40 C-14.55092942 42.71550551 -16.6679131 44.38769989 -20 46 C-21.70921589 47.5412312 -21.70921589 47.5412312 -23 49 C-23.33 47.68 -23.66 46.36 -24 45 C-20.25 42 -20.25 42 -18 42 C-17.73445312 41.39800781 -17.46890625 40.79601562 -17.1953125 40.17578125 C-15.95596885 37.91985179 -14.86150568 36.79056389 -12.875 35.1875 C-12.26011719 34.67960937 -11.64523438 34.17171875 -11.01171875 33.6484375 C-10.34785156 33.10445312 -9.68398437 32.56046875 -9 32 C-7.55665217 30.77770544 -6.11910351 29.54852926 -4.6875 28.3125 C-3.70330078 27.47138672 -3.70330078 27.47138672 -2.69921875 26.61328125 C-0.15098004 24.19391898 0.94926693 22.56552454 1.265625 19.0390625 C1.26046875 17.91242187 1.2553125 16.78578125 1.25 15.625 C1.25515625 14.50351562 1.2603125 13.38203125 1.265625 12.2265625 C1.00308857 9.03751709 0.32780715 6.8835215 -1 4 C-1.33 3.01 -1.66 2.02 -2 1 C-1.34 0.67 -0.68 0.34 0 0 Z " fill="#9876BB" transform="translate(230,28)"/>
<path d="M0 0 C1.98 0 3.96 0 6 0 C4.41641358 3.16717283 3.54736301 4.73268318 0.3125 6.3125 C-0.450625 6.539375 -1.21375 6.76625 -2 7 C-2 7.66 -2 8.32 -2 9 C-3.65 9 -5.3 9 -7 9 C-7.33 9.66 -7.66 10.32 -8 11 C-9.175625 11.2475 -10.35125 11.495 -11.5625 11.75 C-16.64640764 12.87158541 -20.08691327 15.69052771 -24 19 C-24.33 17.68 -24.66 16.36 -25 15 C-24.34 15 -23.68 15 -23 15 C-22.77828125 14.41476562 -22.5565625 13.82953125 -22.328125 13.2265625 C-20.59179592 10.31565786 -18.62042281 9.15528956 -15.75 7.375 C-14.81671875 6.78460937 -13.8834375 6.19421875 -12.921875 5.5859375 C-8.50138531 3.1865808 -5.04754519 2 0 2 C0 1.34 0 0.68 0 0 Z " fill="#4868D6" transform="translate(34,0)"/>
<path d="M0 0 C0.99 0.33 1.98 0.66 3 1 C3 2.65 3 4.3 3 6 C2.34 6 1.68 6 1 6 C0.90525391 6.90878906 0.90525391 6.90878906 0.80859375 7.8359375 C-0.257146 15.12784102 -3.03522749 20.5265871 -8 26 C-8.99 26.33 -9.98 26.66 -11 27 C-11.66885874 28.33223504 -12.3353182 29.66567608 -13 31 C-18.27534572 35.30107016 -24.16162427 38 -31 38 C-31 38.66 -31 39.32 -31 40 C-32.65 40 -34.3 40 -36 40 C-35.67 39.01 -35.34 38.02 -35 37 C-32 36 -32 36 -29 37 C-29 35.35 -29 33.7 -29 32 C-27.14375 32.0309375 -27.14375 32.0309375 -25.25 32.0625 C-21.02413874 32.114392 -21.02413874 32.114392 -17 31 C-16.67 30.01 -16.34 29.02 -16 28 C-15.34 28 -14.68 28 -14 28 C-13.505 27.34 -13.01 26.68 -12.5 26 C-12.005 25.34 -11.51 24.68 -11 24 C-10.34 24 -9.68 24 -9 24 C-9 23.34 -9 22.68 -9 22 C-8.34 22 -7.68 22 -7 22 C-6.731875 20.948125 -6.46375 19.89625 -6.1875 18.8125 C-5 15 -5 15 -3.5 12.6875 C-1.27528948 8.70156033 -0.73769298 4.46955156 0 0 Z " fill="#AD75AD" transform="translate(253,216)"/>
<path d="M0 0 C0.78375 0.04125 1.5675 0.0825 2.375 0.125 C2.375 0.785 2.375 1.445 2.375 2.125 C1.715 2.125 1.055 2.125 0.375 2.125 C0.045 3.115 -0.285 4.105 -0.625 5.125 C-1.5840625 5.3415625 -1.5840625 5.3415625 -2.5625 5.5625 C-3.5834375 5.8409375 -3.5834375 5.8409375 -4.625 6.125 C-4.89441406 6.71023437 -5.16382813 7.29546875 -5.44140625 7.8984375 C-6.99894877 10.82846798 -9.01141915 12.2877346 -11.625 14.3125 C-12.511875 15.00730469 -13.39875 15.70210937 -14.3125 16.41796875 C-19.0826325 19.93916453 -23.83476303 19.8864329 -29.625 19.125 C-32.84844672 16.6909688 -34.3996971 14.46295435 -36.625 11.125 C-35.635 11.125 -34.645 11.125 -33.625 11.125 C-33.625 11.785 -33.625 12.445 -33.625 13.125 C-32.7175 13.24875 -31.81 13.3725 -30.875 13.5 C-28.03529677 14.04609677 -26.09909409 14.69763803 -23.625 16.125 C-23.625 16.785 -23.625 17.445 -23.625 18.125 C-21.62516466 17.33382096 -21.62516466 17.33382096 -19.625 16.125 C-19.295 15.135 -18.965 14.145 -18.625 13.125 C-16.01002661 11.88632839 -13.36988051 11.03996017 -10.625 10.125 C-9.41617904 8.12483534 -9.41617904 8.12483534 -8.625 6.125 C-7.635 6.125 -6.645 6.125 -5.625 6.125 C-5.50125 5.50625 -5.3775 4.8875 -5.25 4.25 C-4.29660357 1.00845214 -3.38899251 0.1613806 0 0 Z " fill="#8271B4" transform="translate(151.625,146.875)"/>
<path d="M0 0 C1.32451172 0.05414063 1.32451172 0.05414063 2.67578125 0.109375 C3.67158203 0.17898437 3.67158203 0.17898437 4.6875 0.25 C4.6875 0.58 4.6875 0.91 4.6875 1.25 C3.615 1.4975 2.5425 1.745 1.4375 2 C-2.4194859 3.28566197 -4.00210039 3.96212363 -6.3125 7.25 C-7.58006697 13.87239069 -7.6338565 20.58246056 -7.83007812 27.30664062 C-7.86423828 28.17095703 -7.89839844 29.03527344 -7.93359375 29.92578125 C-7.9586499 30.70864502 -7.98370605 31.49150879 -8.00952148 32.2980957 C-8.3125 34.25 -8.3125 34.25 -10.3125 36.25 C-10.43629245 31.76604697 -10.52692571 27.28300398 -10.5871582 22.79785156 C-10.61227103 21.2729357 -10.64636883 19.74813985 -10.68969727 18.22363281 C-10.75050044 16.02899574 -10.77873887 13.8359519 -10.80078125 11.640625 C-10.82696533 10.32094727 -10.85314941 9.00126953 -10.88012695 7.64160156 C-10.3125 4.25 -10.3125 4.25 -7.94921875 1.8125 C-4.97866391 0.05217121 -3.41202532 -0.18197468 0 0 Z " fill="#9F6BB5" transform="translate(243.3125,117.75)"/>
<path d="M0 0 C0.90492187 0.02320312 1.80984375 0.04640625 2.7421875 0.0703125 C3.65226562 0.08835937 4.56234375 0.10640625 5.5 0.125 C6.19867188 0.14820312 6.89734375 0.17140625 7.6171875 0.1953125 C5.02749886 1.92177159 2.69066572 3.06640757 -0.1328125 4.3203125 C-8.07317657 8.2615151 -12.34296616 14.03572496 -15.3828125 22.1953125 C-16.0428125 23.1853125 -16.7028125 24.1753125 -17.3828125 25.1953125 C-17.0528125 19.9153125 -16.7228125 14.6353125 -16.3828125 9.1953125 C-14.7328125 9.1953125 -13.0828125 9.1953125 -11.3828125 9.1953125 C-10.9703125 8.2259375 -10.5578125 7.2565625 -10.1328125 6.2578125 C-8.3828125 3.1953125 -8.3828125 3.1953125 -6.3203125 2.4453125 C-5.36125 2.3215625 -5.36125 2.3215625 -4.3828125 2.1953125 C-2.3828125 0.1953125 -2.3828125 0.1953125 0 0 Z " fill="#546FCE" transform="translate(40.3828125,22.8046875)"/>
<path d="M0 0 C1.25619141 0.00451172 2.51238281 0.00902344 3.80664062 0.01367188 C6.89197663 0.02540319 9.97721316 0.041819 13.0625 0.0625 C13.0625 0.7225 13.0625 1.3825 13.0625 2.0625 C14.3825 2.3925 15.7025 2.7225 17.0625 3.0625 C17.0625 4.0525 17.0625 5.0425 17.0625 6.0625 C15.81218994 5.58031006 15.81218994 5.58031006 14.53662109 5.08837891 C10.71884601 3.96102185 7.45275425 3.7438661 3.4765625 3.6484375 C2.77477875 3.62907135 2.072995 3.6097052 1.34994507 3.5897522 C-0.87074999 3.53042431 -3.09149823 3.48376083 -5.3125 3.4375 C-6.82684434 3.39927698 -8.34116794 3.36022278 -9.85546875 3.3203125 C-13.54928831 3.22476266 -17.2432647 3.14056063 -20.9375 3.0625 C-20.9375 2.4025 -20.9375 1.7425 -20.9375 1.0625 C-13.98535719 -0.24941997 -7.05305097 -0.04808058 0 0 Z " fill="#7D6DB6" transform="translate(206.9375,19.9375)"/>
<path d="M0 0 C4.5206665 -0.02468857 9.0412939 -0.04285449 13.56201172 -0.05493164 C15.10043013 -0.05996552 16.63884375 -0.06679308 18.17724609 -0.07543945 C20.38640526 -0.08754639 22.59550126 -0.09323769 24.8046875 -0.09765625 C25.49432587 -0.10281754 26.18396423 -0.10797882 26.89450073 -0.11329651 C31.77225659 -0.11387171 31.77225659 -0.11387171 34 1 C34 1.66 34 2.32 34 3 C21.79 3 9.58 3 -3 3 C-2.01 2.67 -1.02 2.34 0 2 C0 1.34 0 0.68 0 0 Z " fill="#7169BA" transform="translate(152,20)"/>
<path d="M0 0 C0.33 0 0.66 0 1 0 C1.33 21.12 1.66 42.24 2 64 C1.01 64 0.02 64 -1 64 C-1.15305155 42.64342189 -0.74071968 21.34297075 0 0 Z " fill="#5B6BCE" transform="translate(21,143)"/>
<path d="M0 0 C13.365 0.495 13.365 0.495 27 1 C27 1.33 27 1.66 27 2 C29.97 2.495 29.97 2.495 33 3 C33 3.33 33 3.66 33 4 C21.45 4 9.9 4 -2 4 C-1.34 2.68 -0.68 1.36 0 0 Z " fill="#5F67C6" transform="translate(95,19)"/>
<path d="M0 0 C4.5554179 3.57925692 6.37092014 8.59284133 8 14 C8 15.32 8 16.64 8 18 C8.66 18 9.32 18 10 18 C10 19.65 10 21.3 10 23 C9.01 22.67 8.02 22.34 7 22 C6.67 22.99 6.34 23.98 6 25 C4.6728739 21.0186217 4.93084087 17.14954773 5 13 C4.01 12.67 3.02 12.34 2 12 C1.92652344 11.04287109 1.92652344 11.04287109 1.8515625 10.06640625 C1.77679688 9.24011719 1.70203125 8.41382813 1.625 7.5625 C1.55539063 6.73878906 1.48578125 5.91507813 1.4140625 5.06640625 C1.27742187 4.38449219 1.14078125 3.70257812 1 3 C0.34 2.67 -0.32 2.34 -1 2 C-0.67 1.34 -0.34 0.68 0 0 Z " fill="#9070B0" transform="translate(246,16)"/>
<path d="M0 0 C-0.2165625 0.7425 -0.2165625 0.7425 -0.4375 1.5 C-1.11456643 4.20519398 -1.11456643 4.20519398 -1.25 7.875 C-1.77359801 12.53502231 -3.72946267 14.72946267 -7 18 C-7.33 18 -7.66 18 -8 18 C-8 15.36 -8 12.72 -8 10 C-7.34 10 -6.68 10 -6 10 C-5.87882813 9.36191406 -5.75765625 8.72382813 -5.6328125 8.06640625 C-5.46523437 7.24011719 -5.29765625 6.41382813 -5.125 5.5625 C-4.88136719 4.32693359 -4.88136719 4.32693359 -4.6328125 3.06640625 C-4.42398437 2.38449219 -4.21515625 1.70257812 -4 1 C-2 0 -2 0 0 0 Z " fill="#5B78D3" transform="translate(8,22)"/>
<path d="M0 0 C4.44271164 0.54387178 7.71904871 1.63947076 11.625 3.8125 C12.54539063 4.31394531 13.46578125 4.81539063 14.4140625 5.33203125 C17.00474538 7.00306084 18.98645746 8.66977354 21 11 C21 11.66 21 12.32 21 13 C21.66 13.33 22.32 13.66 23 14 C18.92989447 14 17.24606135 12.3848614 14 10 C13.401875 9.319375 12.80375 8.63875 12.1875 7.9375 C9.35122202 5.42536807 6.54906117 4.7633369 2.92578125 3.80859375 C2.29027344 3.54175781 1.65476563 3.27492188 1 3 C0.67 2.01 0.34 1.02 0 0 Z " fill="#8D77B5" transform="translate(223,2)"/>
<path d="M0 0 C4.62 0 9.24 0 14 0 C14 0.66 14 1.32 14 2 C14.99 2.33 15.98 2.66 17 3 C8.75 3 0.5 3 -8 3 C-8 2.67 -8 2.34 -8 2 C-5.36 2 -2.72 2 0 2 C0 1.34 0 0.68 0 0 Z " fill="#506AC7" transform="translate(74,20)"/>
<path d="M0 0 C0 0.66 0 1.32 0 2 C-1.32 2.33 -2.64 2.66 -4 3 C-4.33 4.32 -4.66 5.64 -5 7 C-7.31 7.33 -9.62 7.66 -12 8 C-12 8.66 -12 9.32 -12 10 C-12.99 10.33 -13.98 10.66 -15 11 C-16.66710346 12.49985609 -16.66710346 12.49985609 -18 14 C-18.33 13.34 -18.66 12.68 -19 12 C-18.34 12 -17.68 12 -17 12 C-16.7834375 11.41605469 -16.566875 10.83210937 -16.34375 10.23046875 C-14.555006 7.2613617 -12.44979991 6.10178652 -9.5 4.3125 C-8.03046875 3.40951172 -8.03046875 3.40951172 -6.53125 2.48828125 C-2.2992126 0 -2.2992126 0 0 0 Z " fill="#5D7BCA" transform="translate(28,3)"/>
<path d="M0 0 C1.08667969 0.50660156 1.08667969 0.50660156 2.1953125 1.0234375 C7.06699457 3.27090683 11.84518148 5.46748639 17 7 C17 7.33 17 7.66 17 8 C13.37 8 9.74 8 6 8 C6 7.34 6 6.68 6 6 C4.35 5.67 2.7 5.34 1 5 C0.67 3.35 0.34 1.7 0 0 Z " fill="#E3EAFC" transform="translate(18,248)"/>
<path d="M0 0 C0 0.33 0 0.66 0 1 C-1.546875 1.2784375 -1.546875 1.2784375 -3.125 1.5625 C-7.32371665 2.71225 -9.20005086 5.13157513 -11.73828125 8.5390625 C-12.15464844 9.02117187 -12.57101563 9.50328125 -13 10 C-13.66 10 -14.32 10 -15 10 C-15.42122669 6.29320509 -15.47815304 4.60566051 -13.125 1.625 C-8.73262781 -0.65903354 -4.85475089 -0.33936123 0 0 Z " fill="#A080B4" transform="translate(248,118)"/>
<path d="M0 0 C0.66 0.33 1.32 0.66 2 1 C0.67036433 6.48474712 -3.49751855 9.90621572 -8 13 C-11 13 -11 13 -13 12 C-11.54712339 10.66072279 -10.08752741 9.32873153 -8.625 8 C-7.81289062 7.2575 -7.00078125 6.515 -6.1640625 5.75 C-4 4 -4 4 -2 4 C-1.34 2.68 -0.68 1.36 0 0 Z " fill="#9381B8" transform="translate(204,74)"/>
<path d="M0 0 C0.66 0.33 1.32 0.66 2 1 C0.38405168 3.04119788 -1.2856382 5.04072937 -3 7 C-3.66 7 -4.32 7 -5 7 C-5 7.99 -5 8.98 -5 10 C-5.66 10 -6.32 10 -7 10 C-8.7143618 11.95927063 -10.38405168 13.95880212 -12 16 C-13.32 15.34 -14.64 14.68 -16 14 C-15.01257813 13.15695313 -14.02515625 12.31390625 -13.0078125 11.4453125 C-11.71350438 10.33858527 -10.41923559 9.23181204 -9.125 8.125 C-8.47402344 7.56941406 -7.82304687 7.01382813 -7.15234375 6.44140625 C-6.52714844 5.90644531 -5.90195313 5.37148437 -5.2578125 4.8203125 C-4.6817627 4.32805176 -4.10571289 3.83579102 -3.51220703 3.32861328 C-2.30047746 2.26399715 -1.14054725 1.14054725 0 0 Z " fill="#8D81BD" transform="translate(154,117)"/>
<path d="M0 0 C0.65234375 1.7578125 0.65234375 1.7578125 1 4 C-1.90019444 9.99454416 -7.34219242 14.66572736 -13 18 C-16 18.875 -16 18.875 -18 19 C-17 17 -17 17 -14.25 15.6875 C-7.48879301 12.17687329 -3.97021337 6.26229532 0 0 Z " fill="#F1D9F2" transform="translate(251,232)"/>
<path d="M0 0 C1.32 0 2.64 0 4 0 C4.12117187 0.68707031 4.24234375 1.37414062 4.3671875 2.08203125 C4.53476563 2.98308594 4.70234375 3.88414062 4.875 4.8125 C5.03742187 5.70582031 5.19984375 6.59914062 5.3671875 7.51953125 C5.91188449 10.22727846 5.91188449 10.22727846 8 13 C8.625 15.1875 8.625 15.1875 9 17 C8.01 17 7.02 17 6 17 C5.32471777 15.42032193 4.66010306 13.83608097 4 12.25 C3.62875 11.36828125 3.2575 10.4865625 2.875 9.578125 C2 7 2 7 2 3 C1.34 3 0.68 3 0 3 C0 2.01 0 1.02 0 0 Z " fill="#6C76C5" transform="translate(0,219)"/>
<path d="M0 0 C6.27 0 12.54 0 19 0 C19 0.66 19 1.32 19 2 C20.32 2.33 21.64 2.66 23 3 C23 3.99 23 4.98 23 6 C21.80375 5.54625 20.6075 5.0925 19.375 4.625 C13.0767042 2.49869534 6.57528728 1.79502051 0 1 C0 0.67 0 0.34 0 0 Z " fill="#846EC5" transform="translate(201,20)"/>
<path d="M0 0 C1.98 0 3.96 0 6 0 C6 0.66 6 1.32 6 2 C5.34 2 4.68 2 4 2 C4 2.99 4 3.98 4 5 C2.02 5.33 0.04 5.66 -2 6 C-2 6.66 -2 7.32 -2 8 C-3.65 8 -5.3 8 -7 8 C-6.67 7.01 -6.34 6.02 -6 5 C-3 4 -3 4 0 5 C0 3.35 0 1.7 0 0 Z " fill="#B371B4" transform="translate(224,248)"/>
<path d="M0 0 C1.98 0 3.96 0 6 0 C4.41641358 3.16717283 3.54736301 4.73268318 0.3125 6.3125 C-0.450625 6.539375 -1.21375 6.76625 -2 7 C-2 6.34 -2 5.68 -2 5 C-3.32 5 -4.64 5 -6 5 C-6 4.34 -6 3.68 -6 3 C-4.02 2.67 -2.04 2.34 0 2 C0 1.34 0 0.68 0 0 Z " fill="#526DCA" transform="translate(34,0)"/>
<path d="M0 0 C0.66 0 1.32 0 2 0 C2 0.66 2 1.32 2 2 C2.61875 2.061875 3.2375 2.12375 3.875 2.1875 C6 3 6 3 7.25 5.5625 C7.4975 6.366875 7.745 7.17125 8 8 C8.99 8 9.98 8 11 8 C11.33 8.66 11.66 9.32 12 10 C13.97888961 10.72693904 15.97954558 11.39816251 18 12 C18 12.33 18 12.66 18 13 C14.23555805 13.37424277 12.47974146 13.32444943 9.296875 11.171875 C8.45640625 10.37265625 7.6159375 9.5734375 6.75 8.75 C5.47382813 7.56664062 5.47382813 7.56664062 4.171875 6.359375 C2.24535682 4.2665387 1.07544454 2.60496566 0 0 Z " fill="#6D75B7" transform="translate(8,237)"/>
<path d="M0 0 C2.13586678 3.20380017 2.23132175 4.01939967 2.125 7.6875 C2.10695313 8.49574219 2.08890625 9.30398437 2.0703125 10.13671875 C2.03550781 11.05904297 2.03550781 11.05904297 2 12 C2.66 12.33 3.32 12.66 4 13 C3.67 13.99 3.34 14.98 3 16 C-0.875 13.375 -0.875 13.375 -2 10 C-2.34710744 3.52066116 -2.34710744 3.52066116 0 0 Z " fill="#7B80C0" transform="translate(72,98)"/>
<path d="M0 0 C0.66 0 1.32 0 2 0 C3.66666667 5 5.33333333 10 7 15 C6.34 15 5.68 15 5 15 C5 14.01 5 13.02 5 12 C2.525 11.01 2.525 11.01 0 10 C0 6.7 0 3.4 0 0 Z " fill="#E2E6FB" transform="translate(0,222)"/>
<path d="M0 0 C-1.86502588 2.62799102 -3.30410791 3.86365751 -6.4921875 4.48828125 C-8.9964272 4.72593573 -11.48653979 4.9040664 -14 5 C-14.33 4.34 -14.66 3.68 -15 3 C-13.68 3 -12.36 3 -11 3 C-11 2.34 -11 1.68 -11 1 C-7.27569643 0.30710631 -3.78916254 -0.11144596 0 0 Z " fill="#A673AD" transform="translate(219,230)"/>
<path d="M0 0 C0.33 0.66 0.66 1.32 1 2 C1.66 2.33 2.32 2.66 3 3 C1.56967163 4.17544805 0.13046758 5.34010262 -1.3125 6.5 C-2.11300781 7.1496875 -2.91351563 7.799375 -3.73828125 8.46875 C-6 10 -6 10 -9 10 C-7.49111169 5.77511272 -4.67376036 4.34495342 -1 2 C-0.67 1.34 -0.34 0.68 0 0 Z " fill="#8978B9" transform="translate(168,132)"/>
<path d="M0 0 C0 2 0 2 -1.75 4 C-3.82134431 5.84119495 -5.53884518 6.80911864 -8 8 C-9.70921589 9.5412312 -9.70921589 9.5412312 -11 11 C-11.33 9.68 -11.66 8.36 -12 7 C-8.25 4 -8.25 4 -6 4 C-5.67 3.01 -5.34 2.02 -5 1 C-2 0 -2 0 0 0 Z " fill="#8D73B3" transform="translate(218,66)"/>
<path d="M0 0 C0.99 0 1.98 0 3 0 C3 0.66 3 1.32 3 2 C3.9075 2.103125 4.815 2.20625 5.75 2.3125 C9.01961575 3.00414949 10.53717737 3.82134921 13 6 C11.02 6.66 9.04 7.32 7 8 C4.35247996 5.42215154 2.05567935 3.08351902 0 0 Z " fill="#867CBE" transform="translate(115,158)"/>
<path d="M0 0 C1.21816406 0.03480469 1.21816406 0.03480469 2.4609375 0.0703125 C3.68683594 0.09738281 3.68683594 0.09738281 4.9375 0.125 C5.87722656 0.15980469 5.87722656 0.15980469 6.8359375 0.1953125 C6.5059375 0.8553125 6.1759375 1.5153125 5.8359375 2.1953125 C5.2378125 2.3396875 4.6396875 2.4840625 4.0234375 2.6328125 C1.71833059 3.07539411 1.71833059 3.07539411 -0.2265625 4.7578125 C-2.1640625 6.1953125 -2.1640625 6.1953125 -5.1640625 6.1953125 C-4.4726412 2.73820598 -3.94163347 0.35574309 0 0 Z " fill="#6A6EBC" transform="translate(78.1640625,93.8046875)"/>
<path d="M0 0 C0.99 0.33 1.98 0.66 3 1 C1.02 1.99 1.02 1.99 -1 3 C-1 3.66 -1 4.32 -1 5 C-3.8125 7.6875 -3.8125 7.6875 -7 10 C-7.99 9.67 -8.98 9.34 -10 9 C-10 8.34 -10 7.68 -10 7 C-8.906875 6.401875 -7.81375 5.80375 -6.6875 5.1875 C-4.08925871 3.70955303 -1.95650507 2.30177067 0 0 Z " fill="#8F7BB9" transform="translate(180,123)"/>
<path d="M0 0 C2.125 0.9375 2.125 0.9375 4 2 C3.49396008 4.16874252 3.00016187 5.99967627 2 8 C1.34 8 0.68 8 0 8 C0 7.34 0 6.68 0 6 C-0.66 5.67 -1.32 5.34 -2 5 C-2 3.68 -2 2.36 -2 1 C-1.34 0.67 -0.68 0.34 0 0 Z " fill="#5D64D7" transform="translate(10,231)"/>
<path d="M0 0 C0.33 0 0.66 0 1 0 C0.40546697 9.59453303 0.40546697 9.59453303 -3 13 C-4.60080151 8.99799622 -3.29279692 5.95443764 -2 2 C-1.34 2 -0.68 2 0 2 C0 1.34 0 0.68 0 0 Z " fill="#A778AA" transform="translate(232,210)"/>
<path d="M0 0 C-8.36923077 5.41538462 -8.36923077 5.41538462 -13.375 4.625 C-13.91125 4.41875 -14.4475 4.2125 -15 4 C-10.86492484 0.20951444 -5.37957111 -1.79319037 0 0 Z " fill="#EBF1FC" transform="translate(49,26)"/>
<path d="M0 0 C2 2 2 2 2 6 C2.66 6 3.32 6 4 6 C4 7.65 4 9.3 4 11 C1.66475218 8.74259377 -0.18705073 6.7194239 -2 4 C-2 3.01 -2 2.02 -2 1 C-1.34 0.67 -0.68 0.34 0 0 Z " fill="#E6EEFA" transform="translate(28,212)"/>
<path d="M0 0 C0 1.65 0 3.3 0 5 C-2.64738916 6.4606285 -3.89448334 7 -7 7 C-5.52694611 2.33532934 -5.52694611 2.33532934 -2.9375 0.6875 C-1 0 -1 0 0 0 Z " fill="#7C6EAF" transform="translate(141,131)"/>
<path d="M0 0 C2.4375 0.75 2.4375 0.75 5 2 C5.8125 4.125 5.8125 4.125 6 6 C6.66 6 7.32 6 8 6 C7.67 6.99 7.34 7.98 7 9 C6.01 8.34 5.02 7.68 4 7 C4 6.34 4 5.68 4 5 C3.01 5 2.02 5 1 5 C0.67 3.35 0.34 1.7 0 0 Z " fill="#A377B3" transform="translate(248,119)"/>
<path d="M0 0 C0.66 0 1.32 0 2 0 C2 2.64 2 5.28 2 8 C0.35 8.66 -1.3 9.32 -3 10 C-2.01 6.7 -1.02 3.4 0 0 Z " fill="#E9DAF6" transform="translate(254,54)"/>
<path d="M0 0 C0.66 0 1.32 0 2 0 C3.125 4.75 3.125 4.75 2 7 C-1.37503669 5.8141763 -3.64722731 4.72426311 -6 2 C-3.03 2.495 -3.03 2.495 0 3 C0 2.01 0 1.02 0 0 Z " fill="#E7EBF5" transform="translate(42,224)"/>
<path d="M0 0 C1.60379341 -0.05416188 3.20811406 -0.09286638 4.8125 -0.125 C5.70582031 -0.14820312 6.59914062 -0.17140625 7.51953125 -0.1953125 C10 0 10 0 13 2 C13 2.66 13 3.32 13 4 C8.71 3.34 4.42 2.68 0 2 C0 1.34 0 0.68 0 0 Z " fill="#E5D3F0" transform="translate(239,116)"/>
<path d="M0 0 C0.33 1.32 0.66 2.64 1 4 C1.66 4 2.32 4 3 4 C3 5.65 3 7.3 3 9 C2.01 8.67 1.02 8.34 0 8 C-0.33 8.99 -0.66 9.98 -1 11 C-2.60080151 6.99799622 -1.29279692 3.95443764 0 0 Z " fill="#9F78BD" transform="translate(253,30)"/>
<path d="M0 0 C0.66 0 1.32 0 2 0 C2 2.64 2 5.28 2 8 C0.02 8.99 0.02 8.99 -2 10 C-1.54177532 6.53058454 -1.10868317 3.32604951 0 0 Z " fill="#F2D8F5" transform="translate(254,222)"/>
<path d="M0 0 C3.31038651 1.65519326 3.78867011 4.65442221 5 8 C4.67 8.99 4.34 9.98 4 11 C2.99421411 9.71283353 1.99553202 8.42011342 1 7.125 C0.443125 6.40570313 -0.11375 5.68640625 -0.6875 4.9453125 C-2 3 -2 3 -2 1 C-1.34 0.67 -0.68 0.34 0 0 Z " fill="#8C71B5" transform="translate(230,28)"/>
<path d="M0 0 C3.3 0 6.6 0 10 0 C7.29811996 1.80125336 5.06942297 3.00243753 2 4 C1.01 3.67 0.02 3.34 -1 3 C-0.67 2.01 -0.34 1.02 0 0 Z " fill="#516CC3" transform="translate(38,23)"/>
<path d="M0 0 C1.98 0 3.96 0 6 0 C6 1.32 6 2.64 6 4 C3.69 3.67 1.38 3.34 -1 3 C-0.67 2.01 -0.34 1.02 0 0 Z " fill="#4265E1" transform="translate(26,5)"/>
<path d="M0 0 C0.66 0.33 1.32 0.66 2 1 C-2.43076923 6.78461538 -2.43076923 6.78461538 -5.3125 7.875 C-5.869375 7.91625 -6.42625 7.9575 -7 8 C-6.01347016 4.68167234 -5.31268497 3.23451373 -2.5 1.125 C-1.675 0.75375 -0.85 0.3825 0 0 Z " fill="#7E6DB6" transform="translate(161,113)"/>
<path d="M0 0 C2.31 0 4.62 0 7 0 C7.33 0.99 7.66 1.98 8 3 C5.03 3 2.06 3 -1 3 C-0.67 2.01 -0.34 1.02 0 0 Z " fill="#4A67C7" transform="translate(55,20)"/>
<path d="M0 0 C2.4375 0.75 2.4375 0.75 5 2 C5.8125 4.125 5.8125 4.125 6 6 C7.32 5.67 8.64 5.34 10 5 C10 5.66 10 6.32 10 7 C9.34 7 8.68 7 8 7 C7.67 7.66 7.34 8.32 7 9 C5.83037314 7.69013727 4.66437056 6.3770374 3.5 5.0625 C2.8503125 4.33160156 2.200625 3.60070312 1.53125 2.84765625 C0 1 0 1 0 0 Z " fill="#7379BB" transform="translate(75,114)"/>
<path d="M0 0 C0.33 1.32 0.66 2.64 1 4 C-1.8125 6.0625 -1.8125 6.0625 -5 8 C-5.99 7.67 -6.98 7.34 -8 7 C-5.36 4.69 -2.72 2.38 0 0 Z " fill="#E6DDF4" transform="translate(228,84)"/>
<path d="M0 0 C0 2.62113708 -0.31292445 4.50935112 -1 7 C-1.66 7 -2.32 7 -3 7 C-3 7.66 -3 8.32 -3 9 C-3.99 9 -4.98 9 -6 9 C-4.68775452 5.06326356 -3.08089673 2.77280706 0 0 Z " fill="#DDE8F9" transform="translate(33,31)"/>
<path d="M0 0 C0.99 0 1.98 0 3 0 C2.34 2.64 1.68 5.28 1 8 C0.34 8 -0.32 8 -1 8 C-1.04241723 5.66705225 -1.04092937 3.33297433 -1 1 C-0.67 0.67 -0.34 0.34 0 0 Z " fill="#E5EBFD" transform="translate(1,24)"/>
<path d="M0 0 C1.98 0.99 1.98 0.99 4 2 C3.67 4.31 3.34 6.62 3 9 C2.01 8.34 1.02 7.68 0 7 C-0.1875 3.375 -0.1875 3.375 0 0 Z " fill="#5E66DB" transform="translate(5,223)"/>
<path d="M0 0 C0.66 0.33 1.32 0.66 2 1 C-2.30769231 6.78461538 -2.30769231 6.78461538 -5.8125 7.875 C-6.8953125 7.936875 -6.8953125 7.936875 -8 8 C-7.34 7.67 -6.68 7.34 -6 7 C-6 6.34 -6 5.68 -6 5 C-5.195625 4.731875 -4.39125 4.46375 -3.5625 4.1875 C-2.716875 3.795625 -1.87125 3.40375 -1 3 C-0.67 2.01 -0.34 1.02 0 0 Z " fill="#E8DBF2" transform="translate(200,108)"/>
<path d="M0 0 C-2.55068845 2.35448165 -3.71017358 2.98327924 -7.25 3.1875 C-8.1575 3.125625 -9.065 3.06375 -10 3 C-10 2.34 -10 1.68 -10 1 C-3.71428571 -1.42857143 -3.71428571 -1.42857143 0 0 Z " fill="#F3D3F4" transform="translate(232,253)"/>
<path d="M0 0 C-0.66 1.32 -1.32 2.64 -2 4 C-5.96 4 -9.92 4 -14 4 C-14 3.67 -14 3.34 -14 3 C-13.38511719 2.95101562 -12.77023438 2.90203125 -12.13671875 2.8515625 C-11.32847656 2.77679688 -10.52023438 2.70203125 -9.6875 2.625 C-8.88699219 2.55539063 -8.08648437 2.48578125 -7.26171875 2.4140625 C-4.40085313 1.89031163 -2.90947141 0 0 0 Z " fill="#CCC5E7" transform="translate(138,163)"/>
<path d="M0 0 C3.16115776 1.36983503 3.9927092 1.9890638 6 5 C5.67 5.99 5.34 6.98 5 8 C2.5 5.6875 2.5 5.6875 0 3 C0 2.01 0 1.02 0 0 Z " fill="#7975B5" transform="translate(106,146)"/>
<path d="M0 0 C-0.99 0.33 -1.98 0.66 -3 1 C-3 1.66 -3 2.32 -3 3 C-4.98 3.99 -4.98 3.99 -7 5 C-7.33 4.01 -7.66 3.02 -8 2 C-7.34 2 -6.68 2 -6 2 C-6 1.34 -6 0.68 -6 0 C-3.50907189 -1.24546405 -2.58919267 -0.7767578 0 0 Z " fill="#977DB5" transform="translate(216,96)"/>
<path d="M0 0 C2.79872437 2.52788007 4.45773019 4.20411134 5 8 C4.01 8 3.02 8 2 8 C1.87625 7.195625 1.7525 6.39125 1.625 5.5625 C1.315625 4.2940625 1.315625 4.2940625 1 3 C0.34 2.67 -0.32 2.34 -1 2 C-0.67 1.34 -0.34 0.68 0 0 Z " fill="#9B85BD" transform="translate(246,16)"/>
<path d="M0 0 C6.75 -0.125 6.75 -0.125 9 1 C9 1.99 9 2.98 9 4 C6.03 3.01 3.06 2.02 0 1 C0 0.67 0 0.34 0 0 Z " fill="#8C74B8" transform="translate(215,22)"/>
<path d="M0 0 C1.875 0.25 1.875 0.25 4 1 C4.69937532 2.31647119 5.36729133 3.65022151 6 5 C6.99 5.33 7.98 5.66 9 6 C7.35 5.67 5.7 5.34 4 5 C4 4.34 4 3.68 4 3 C3.01 3 2.02 3 1 3 C0.67 2.01 0.34 1.02 0 0 Z " fill="#636ACC" transform="translate(15,242)"/>
<path d="M0 0 C0 0.66 0 1.32 0 2 C-4.15267176 5.11450382 -4.15267176 5.11450382 -7.3125 4.6875 C-7.869375 4.460625 -8.42625 4.23375 -9 4 C-2.25 0 -2.25 0 0 0 Z " fill="#6E88C9" transform="translate(28,3)"/>
<path d="M0 0 C0.33 1.32 0.66 2.64 1 4 C-1.97 3.67 -4.94 3.34 -8 3 C-7.67 2.34 -7.34 1.68 -7 1 C-4.67843403 0.59270772 -2.3431213 0.25561323 0 0 Z " fill="#867CC3" transform="translate(134,135)"/>
<path d="M0 0 C1.98 1.65 3.96 3.3 6 5 C5.01 5.33 4.02 5.66 3 6 C2.01 5.34 1.02 4.68 0 4 C0 2.68 0 1.36 0 0 Z " fill="#8183C0" transform="translate(98,106)"/>
<path d="M0 0 C0.99 0 1.98 0 3 0 C2.6875 1.875 2.6875 1.875 2 4 C1.01 4.66 0.02 5.32 -1 6 C-1.042721 4.33388095 -1.04063832 2.66617115 -1 1 C-0.67 0.67 -0.34 0.34 0 0 Z " fill="#4970D3" transform="translate(1,34)"/>
</svg>
